<svg width="258" height="66" viewBox="0 0 258 66" fill="none" xmlns="http://www.w3.org/2000/svg">
<path d="M81.1317 0C78.5561 26.9151 38.3122 28.6537 20.9268 19.961C25.3805 22.8049 35.9941 28.9112 42.8195 30.5854C51.3512 32.678 50.3854 34.2878 51.0293 35.8976C51.6732 37.5073 40.4049 53.9268 0 63.2634C5.9561 63.5854 24.1463 63.2634 45.2341 51.8341C61.1707 42.4976 73.8878 49.7415 59.239 66C63.7463 63.1561 72.9541 56.3415 73.7268 51.8341C74.6927 46.2 62.7805 42.1756 61.0098 35.8976C61.0098 33.9659 62.2976 30.9073 67.1268 27.5268C71.9561 24.1463 83.5463 14.0049 81.1317 0Z" fill="#07DF43"/>
<path d="M59.239 8.37073C55.0537 7.56585 52.8 9.81951 52.4781 14.9707V15.9366C56.1805 24.4683 59.239 18.9951 60.0439 17.7073C60.8488 16.4195 63.4244 9.17561 59.239 8.37073Z" fill="#07DF43"/>
<path d="M75.589 40.9103C75.06 40.9367 74.6103 40.9235 74.24 40.8706C73.9358 40.8044 73.658 40.7119 73.4067 40.5928C73.1554 40.4738 72.924 40.2886 72.7123 40.0373C72.2891 39.5083 72.0048 38.8139 71.8593 37.9542C71.7535 37.2532 71.7138 36.4861 71.7402 35.6529V34.78C71.7402 34.6609 71.7468 34.5683 71.7601 34.5022V34.1054V33.7483V33.5499L71.8196 33.4111C71.8196 33.3978 71.8196 33.378 71.8196 33.3515C71.8328 33.3251 71.8394 33.2788 71.8394 33.2127C71.8791 32.7365 71.8989 32.353 71.8989 32.062L71.9386 31.3279C71.9518 30.9973 71.9585 30.6137 71.9585 30.1773C71.9585 30.0053 71.9518 29.8863 71.9386 29.8202C71.9122 29.6615 71.8989 29.5358 71.8989 29.4432C71.8989 29.2448 72.1039 29.1456 72.514 29.1456H72.7917C72.9504 29.1456 73.0562 29.1324 73.1091 29.106L75.5295 29.1456C75.5295 29.1456 75.5361 29.1589 75.5493 29.1853C75.5758 29.1985 75.5956 29.2052 75.6089 29.2052L75.7676 29.1456C76.4553 29.1456 76.8984 29.2118 77.0968 29.344C77.2291 29.4366 77.3216 29.5755 77.3745 29.7607C77.4407 29.9458 77.4737 30.1971 77.4737 30.5145C77.4737 30.7262 77.487 31.0171 77.5134 31.3875C77.5399 31.5726 77.5531 31.8636 77.5531 32.2604V32.4588C77.5266 32.8423 77.5002 33.4706 77.4737 34.3435L77.4539 35.2958V36.1489C77.4275 36.3076 77.4142 36.5192 77.4142 36.7837V37.0813V37.3789C77.401 37.5641 77.4275 37.822 77.4936 38.1526C77.5597 38.2584 77.6192 38.3113 77.6721 38.3113C77.7515 38.3113 78.0491 38.2121 78.5649 38.0137L79.041 37.7757C79.1733 37.7228 79.2394 37.6699 79.2394 37.617V31.0899C79.1998 30.8121 79.1799 30.5939 79.1799 30.4352C79.1667 30.3691 79.1601 30.2699 79.1601 30.1376V29.84V29.6416C79.1601 29.4829 79.1931 29.3705 79.2593 29.3044C79.2857 29.2647 79.3519 29.2448 79.4577 29.2448C79.4841 29.2448 79.5106 29.2581 79.537 29.2845C79.5635 29.2977 79.5767 29.3176 79.5767 29.344V29.3837C79.709 29.3308 79.9933 29.2845 80.4298 29.2448C80.7869 29.2052 81.1837 29.1853 81.6201 29.1853H82.1161H82.4335H82.8105L84.8936 29.2448C84.92 29.2448 84.9399 29.2514 84.9531 29.2647C84.9796 29.2779 84.9928 29.2911 84.9928 29.3044C85.006 29.3044 85.0126 29.311 85.0126 29.3242C85.0126 29.3374 85.0126 29.344 85.0126 29.344V29.4432C84.9994 29.4432 84.9928 29.4631 84.9928 29.5027L85.092 29.4829C85.1052 29.4565 85.125 29.4432 85.1515 29.4432C85.1912 29.4432 85.211 29.4763 85.211 29.5424C85.211 31.857 85.1978 33.7814 85.1713 35.3156C85.1581 36.8366 85.1052 38.3775 85.0126 39.9381C85.0126 40.0043 84.9597 40.1035 84.8539 40.2357C84.801 40.3019 84.7547 40.3548 84.715 40.3944C84.7018 40.4209 84.682 40.4407 84.6555 40.454C84.6291 40.4672 84.6092 40.4804 84.596 40.4936C84.5828 40.4804 84.5365 40.4672 84.4571 40.454C84.3778 40.4275 84.3116 40.4143 84.2587 40.4143L84.1992 40.454C84.1728 40.4804 84.1463 40.4936 84.1199 40.4936C83.5908 40.5862 82.7576 40.6325 81.6201 40.6325H80.7472C80.4166 40.6325 80.1256 40.6061 79.8743 40.5532C79.7817 40.487 79.6825 40.3217 79.5767 40.0572C79.5635 39.9646 79.537 39.8852 79.4973 39.8191C79.4709 39.753 79.4378 39.7199 79.3981 39.7199C79.2923 39.7199 79.127 39.7927 78.9022 39.9381C78.8757 39.9646 78.836 39.9977 78.7831 40.0373C78.7435 40.0638 78.7038 40.0969 78.6641 40.1365C78.5583 40.2159 78.4855 40.282 78.4459 40.3349C78.0888 40.5333 77.6655 40.6788 77.1762 40.7714C76.8455 40.8507 76.5413 40.8904 76.2636 40.8904C75.9594 40.8904 75.7345 40.897 75.589 40.9103ZM87.6672 40.6325C87.4159 40.6325 87.3167 40.4077 87.3696 39.958C87.3696 39.7993 87.4027 39.6207 87.4688 39.4223C87.4688 39.3297 87.4754 39.257 87.4886 39.2041C87.5019 39.138 87.5085 39.0851 87.5085 39.0454C87.8127 37.6037 88.1499 36.1819 88.5203 34.78L89.8693 29.5027C89.8693 29.4763 89.8892 29.4432 89.9289 29.4035C89.9685 29.3639 90.0082 29.3308 90.0479 29.3044H90.1868C90.3455 29.3044 90.4711 29.2845 90.5637 29.2448C90.6431 29.2316 90.7819 29.225 90.9803 29.225C91.2978 29.225 91.5358 29.2316 91.6945 29.2448C91.9326 29.2845 92.1773 29.3044 92.4286 29.3044L93.4602 29.2845C93.566 29.2581 93.6917 29.2448 93.8372 29.2448L94.7101 29.2052H95.3648C95.6161 29.2052 95.8608 29.2118 96.0988 29.225H96.6543C96.7866 29.2382 96.9784 29.2448 97.2297 29.2448H97.9836C98.0232 29.2448 98.0629 29.2514 98.1026 29.2647C98.1423 29.2779 98.1753 29.2911 98.2018 29.3044C98.2547 29.3308 98.3208 29.344 98.4002 29.344H98.5787C98.6713 29.4102 98.7176 29.4763 98.7176 29.5424L100.126 34.78C100.563 36.4597 100.907 37.8815 101.158 39.0454C101.158 39.1115 101.178 39.2372 101.217 39.4223C101.27 39.6868 101.297 39.8985 101.297 40.0572C101.297 40.1498 101.283 40.2754 101.257 40.4341C101.191 40.5664 101.098 40.6325 100.979 40.6325H100.761C100.589 40.6325 100.457 40.6259 100.364 40.6127H99.9278H99.5112H99.1739C99.0813 40.6127 99.0284 40.6061 99.0152 40.5928H97.924L97.9042 40.5532C97.8778 40.5267 97.8381 40.5135 97.7852 40.5135L97.7257 40.5532C97.7257 40.5796 97.7124 40.5928 97.686 40.5928H97.6265H97.4876C97.4214 40.5664 97.3024 40.5532 97.1305 40.5532C96.813 40.5267 96.5485 40.5135 96.3369 40.5135C96.1914 40.2093 96.0195 39.5414 95.8211 38.5097C95.5433 38.5494 95.2259 38.5692 94.8688 38.5692H94.353H93.857C93.8041 38.7676 93.771 38.933 93.7578 39.0652C93.7446 39.1313 93.6917 39.3562 93.5991 39.7397C93.5065 40.1233 93.4206 40.3812 93.3412 40.5135L93.2222 40.5532C93.1825 40.5664 93.1494 40.5796 93.123 40.5928C93.0965 40.5928 93.0833 40.5928 93.0833 40.5928H93.0436C92.9643 40.5928 92.9113 40.5796 92.8849 40.5532C92.832 40.5267 92.7989 40.5135 92.7857 40.5135L92.0318 40.5532H91.4763C91.4102 40.5664 91.3573 40.5796 91.3176 40.5928C91.2779 40.5928 91.2515 40.5928 91.2382 40.5928H89.6511H89.4924C89.3734 40.6061 89.1287 40.6127 88.7584 40.6127H88.2822C88.2029 40.6259 88.0772 40.6325 87.9053 40.6325H87.6672ZM95.6425 36.3869C95.5632 35.9372 95.5169 35.6727 95.5037 35.5934L95.345 34.6411C95.3185 34.4559 95.292 34.2906 95.2656 34.1451C95.2391 33.9864 95.2193 33.8409 95.2061 33.7086C95.1664 33.5499 95.1333 33.4044 95.1069 33.2722C95.0937 33.1267 95.0738 32.9944 95.0474 32.8754C95.0341 32.796 95.0209 32.6968 95.0077 32.5778C94.9945 32.4456 94.9746 32.353 94.9482 32.3001L94.9085 32.062C94.9085 32.0091 94.8953 31.9628 94.8688 31.9231L94.849 31.8041C94.8225 31.8834 94.8093 31.9231 94.8093 31.9231V32.0025V32.062C94.8093 32.0752 94.8027 32.1017 94.7895 32.1414C94.7762 32.1678 94.763 32.2207 94.7498 32.3001C94.7366 32.3662 94.7233 32.4522 94.7101 32.558C94.6969 32.6506 94.677 32.7564 94.6506 32.8754L94.5117 33.6888L94.353 34.6014L94.2935 35.0379C94.267 35.1437 94.2406 35.3156 94.2141 35.5537C94.0951 36.1489 94.0422 36.42 94.0554 36.3671H94.9283C94.9416 36.3539 94.9614 36.3406 94.9878 36.3274C95.0143 36.301 95.0341 36.2877 95.0474 36.2877H95.1069C95.173 36.2877 95.2259 36.2943 95.2656 36.3076C95.3185 36.3208 95.3648 36.334 95.4045 36.3473C95.4838 36.3737 95.5632 36.3869 95.6425 36.3869ZM89.1353 27.9553C89.0427 27.9553 88.97 27.9156 88.9171 27.8363C88.8774 27.7569 88.8575 27.6643 88.8575 27.5585V27.4395C88.8575 27.3866 88.8642 27.3469 88.8774 27.3204C88.97 26.8311 89.2213 26.183 89.6313 25.3762C89.7239 25.1646 89.876 24.8472 90.0876 24.4239L90.524 23.4518L91.1192 22.3011C91.225 22.0763 91.4366 21.6993 91.7541 21.1703L91.8731 21.0116L92.8055 20.7934H93.9562L94.7101 20.8132H95.0077H95.2259C95.2788 20.8396 95.3648 20.8529 95.4838 20.8529H95.8806L96.4758 20.9124L96.9122 21.1703L97.7653 22.6384C98.4928 23.9742 98.9954 24.9993 99.2731 25.7135C99.5112 26.3086 99.6831 26.8443 99.7889 27.3204L99.8088 27.4395V27.5585C99.8088 27.823 99.7096 27.9553 99.5112 27.9553H99.0747H98.5986H98.0232H97.2892H96.8726C96.8064 27.9553 96.7139 27.8825 96.5948 27.7371C96.3171 27.38 96.0658 27.0162 95.8409 26.6459C95.7087 26.4343 95.5962 26.269 95.5037 26.1499C95.1466 25.7002 94.7564 25.1646 94.3332 24.543C93.8173 25.4159 93.4735 25.9846 93.3015 26.2491L93.0436 26.6062C92.7791 27.003 92.5807 27.2741 92.4484 27.4196C92.131 27.7767 91.9194 27.9553 91.8136 27.9553H91.4366H91.02L90.9407 27.8958L90.8415 27.9553H90.2463C90.1934 27.9553 90.1273 27.9553 90.0479 27.9553C89.9685 27.9421 89.8627 27.9421 89.7305 27.9553H89.1353ZM105.297 40.6722H104.979H104.682H104.523L103.749 40.454L103.709 40.3349C103.696 40.3349 103.69 40.2688 103.69 40.1365C103.69 39.9646 103.683 39.8257 103.67 39.7199L103.65 38.966C103.637 38.8073 103.63 38.556 103.63 38.2121C103.63 37.8815 103.624 37.6368 103.61 37.4781V36.8829C103.531 36.0497 103.491 35.19 103.491 34.3038V34.1451V33.8475C103.491 33.6888 103.498 33.5764 103.511 33.5103V33.3515V33.2127C103.498 33.173 103.491 33.1069 103.491 33.0143V32.796V32.677V32.4786V32.1612C103.491 32.0025 103.498 31.8901 103.511 31.8239V31.6255L103.531 31.5263V31.2684C103.544 31.1362 103.551 30.9576 103.551 30.7328C103.551 30.5608 103.544 30.4087 103.531 30.2765L103.511 29.8202L103.491 29.7408C103.452 29.7144 103.452 29.6945 103.491 29.6813C103.544 29.4697 103.709 29.3176 103.987 29.225C104.119 29.1721 104.338 29.1456 104.642 29.1456C104.867 29.1456 105.455 29.1258 106.408 29.0861C106.884 29.0597 107.181 29.0464 107.3 29.0464C107.499 29.0332 107.737 29.0266 108.015 29.0266C108.147 29.0398 108.239 29.0663 108.292 29.106C108.345 29.1324 108.392 29.1853 108.431 29.2647C108.484 29.344 108.524 29.4035 108.55 29.4432L108.947 30.0186C108.934 30.0053 109.099 30.2434 109.443 30.7328C109.76 31.2486 110.144 31.8305 110.594 32.4786C110.66 32.5844 110.739 32.7035 110.832 32.8357C110.924 32.968 111.024 33.1201 111.129 33.292V32.5977C111.143 32.4125 111.149 32.148 111.149 31.8041C111.149 31.3544 111.162 30.8518 111.189 30.2963C111.189 30.1905 111.195 30.0979 111.209 30.0186C111.222 29.926 111.229 29.8532 111.229 29.8003C111.229 29.6681 111.235 29.6019 111.248 29.6019C111.301 29.5226 111.394 29.4366 111.526 29.344C111.685 29.2382 111.85 29.1919 112.022 29.2052H113.014H113.212C113.411 29.2052 113.576 29.2118 113.708 29.225H114.304C114.436 29.2382 114.634 29.2448 114.899 29.2448H115.335H115.534C115.798 29.2448 115.997 29.2911 116.129 29.3837C116.208 29.4366 116.261 29.5094 116.288 29.6019C116.314 29.6813 116.327 29.8069 116.327 29.9789C116.327 30.1508 116.321 30.2963 116.307 30.4153C116.294 30.5476 116.288 30.7063 116.288 30.8915V31.0304C116.301 31.07 116.307 31.1296 116.307 31.2089V31.7247L116.288 34.0062V36.2481V36.7837C116.288 38.2121 116.274 39.1181 116.248 39.5017L116.188 40.1564C116.122 40.4606 116.03 40.6193 115.911 40.6325C115.884 40.6325 115.844 40.6391 115.792 40.6523C115.752 40.6656 115.706 40.6722 115.653 40.6722C115.177 40.6722 114.826 40.659 114.601 40.6325H113.57H112.538H112.28C112.24 40.6457 112.187 40.6523 112.121 40.6523C111.963 40.6523 111.797 40.6193 111.625 40.5532C111.519 40.5267 111.407 40.454 111.288 40.3349L109.542 37.8749C109.476 37.7823 109.35 37.6302 109.165 37.4186L108.907 37.1805C108.841 37.1144 108.788 37.0813 108.749 37.0813C108.709 37.0813 108.676 37.1011 108.649 37.1408C108.623 37.1673 108.61 37.1937 108.61 37.2202V37.5574C108.597 37.6632 108.59 37.8286 108.59 38.0534V38.6288C108.577 38.7742 108.57 38.9726 108.57 39.2239V39.7001V39.9977C108.557 40.0241 108.55 40.0638 108.55 40.1167C108.55 40.1299 108.53 40.2357 108.491 40.4341C108.464 40.487 108.444 40.5201 108.431 40.5333C108.418 40.5465 108.372 40.5532 108.292 40.5532C108.266 40.5399 108.239 40.5333 108.213 40.5333C108.2 40.5333 108.187 40.5333 108.173 40.5333C107.128 40.6259 106.262 40.6722 105.574 40.6722H105.297ZM126.971 40.6325C126.786 40.6325 126.647 40.5069 126.554 40.2556C126.356 39.8191 126.257 39.0255 126.257 37.8749C126.257 36.7639 126.277 35.4876 126.316 34.0459C126.33 33.583 126.336 32.8688 126.336 31.9033L126.277 31.8239H124.075C123.903 31.8239 123.764 31.7313 123.658 31.5462C123.565 31.3478 123.493 31.0766 123.44 30.7328C123.374 30.336 123.34 29.7673 123.34 29.0266V28.7489C123.34 28.6166 123.347 28.5108 123.36 28.4314V28.1338V27.9553C123.36 27.8759 123.4 27.8098 123.479 27.7569C123.559 27.6908 123.651 27.6445 123.757 27.618C123.889 27.5783 124.088 27.5585 124.352 27.5585H125.86C126.191 27.5585 126.442 27.5651 126.614 27.5783L127.348 27.5982H134.49C135.006 27.5982 135.343 27.6048 135.502 27.618C135.568 27.6312 135.661 27.6445 135.78 27.6577C135.899 27.6709 135.985 27.6974 136.038 27.7371C136.13 27.7767 136.183 27.8296 136.196 27.8958C136.223 27.9487 136.236 28.0346 136.236 28.1537V31.4271C136.236 31.5726 136.176 31.6718 136.057 31.7247C135.978 31.7512 135.872 31.7644 135.74 31.7644H135.105H134.45C134.146 31.7644 133.915 31.7512 133.756 31.7247H133.161C133.042 31.7247 132.976 31.7512 132.962 31.8041C132.962 31.8173 132.956 31.8372 132.943 31.8636C132.929 31.8768 132.923 31.8967 132.923 31.9231V32.2207V32.8952C132.923 33.0936 132.916 33.2457 132.903 33.3515C132.903 33.7351 132.877 34.575 132.824 35.8711L132.784 36.4663C132.757 37.0218 132.731 37.4252 132.705 37.6765V39.5612C132.705 40.0109 132.612 40.2952 132.427 40.4143C132.255 40.4804 132.136 40.5201 132.07 40.5333L131.574 40.5532C131.058 40.5532 130.694 40.5664 130.483 40.5928L128.399 40.6127C128.135 40.6259 127.659 40.6325 126.971 40.6325ZM141.05 40.6722C140.495 40.6722 140.025 40.659 139.641 40.6325C139.271 40.6061 138.921 40.5465 138.59 40.454C138.537 40.454 138.497 40.4275 138.471 40.3746C138.444 40.3085 138.425 40.2622 138.411 40.2357C138.398 40.1696 138.392 40.0902 138.392 39.9977C138.312 38.6618 138.239 37.6236 138.173 36.8829C138.107 36.01 138.074 34.9188 138.074 33.6094V33.1135L138.094 32.3596L138.134 31.4668L138.154 30.9708C138.167 30.8783 138.173 30.7328 138.173 30.5344V29.7805C138.173 29.5292 138.18 29.3639 138.193 29.2845C138.193 29.2448 138.22 29.225 138.273 29.225C138.392 29.225 138.497 29.1985 138.59 29.1456C138.63 29.1456 138.689 29.1456 138.769 29.1456C138.861 29.1324 138.94 29.1324 139.007 29.1456H139.661H140.713H141.288H142.399C142.637 29.1456 142.816 29.1523 142.935 29.1655L143.53 29.1853C143.675 29.1853 143.781 29.1985 143.847 29.225C143.927 29.2382 143.986 29.2779 144.026 29.344C144.066 29.3837 144.092 29.4631 144.105 29.5821C144.118 29.7011 144.125 29.8334 144.125 29.9789V30.1376V30.4153C144.125 30.5476 144.132 30.6402 144.145 30.6931V30.8915V31.0304C144.158 31.0833 144.165 31.1494 144.165 31.2287L144.145 31.8239C144.132 31.9562 144.125 32.148 144.125 32.3993C144.125 32.5447 144.138 32.6439 144.165 32.6968C144.204 32.763 144.264 32.796 144.343 32.796C144.37 32.796 144.436 32.7828 144.542 32.7564C144.581 32.7564 144.634 32.7498 144.7 32.7365C144.767 32.7233 144.839 32.7167 144.919 32.7167H145.117C145.183 32.7431 145.302 32.7564 145.474 32.7564C145.54 32.7564 145.6 32.7498 145.653 32.7365C145.719 32.7233 145.778 32.7167 145.831 32.7167C145.95 32.7167 146.01 32.7035 146.01 32.677V31.8636V31.566C146.01 31.3676 146.016 31.2089 146.03 31.0899V30.5344C146.043 30.4021 146.049 30.217 146.049 29.9789C146.049 29.754 146.056 29.6019 146.069 29.5226V29.225H146.129H146.228C146.307 29.225 146.347 29.1985 146.347 29.1456H147.299C147.696 29.1456 147.994 29.1589 148.192 29.1853C148.536 29.2118 148.814 29.225 149.025 29.225L150.275 29.1853C150.474 29.1589 150.718 29.1456 151.009 29.1456H151.525C151.79 29.1456 151.968 29.1721 152.061 29.225C152.153 29.2779 152.2 29.4102 152.2 29.6218V31.1891C152.2 31.4536 152.193 31.6652 152.18 31.8239L152.16 32.3001C152.16 32.5117 152.147 32.8291 152.12 33.2523L152.1 33.5896L152.12 33.907L151.922 40.196C151.922 40.2357 151.882 40.3217 151.803 40.454C151.723 40.5598 151.644 40.6127 151.565 40.6127H150.176C149.66 40.6127 149.151 40.5928 148.648 40.5532C148.318 40.5399 147.822 40.5333 147.16 40.5333H146.823C146.638 40.5333 146.512 40.4672 146.446 40.3349C146.393 40.163 146.36 39.9381 146.347 39.6604L146.149 36.3869H145.95C145.633 36.3869 145.401 36.3803 145.256 36.3671C145.124 36.3406 145.058 36.3274 145.058 36.3274H144.244C144.191 36.3274 144.158 36.3473 144.145 36.3869C144.132 36.4266 144.125 36.4729 144.125 36.5258C144.125 36.5655 144.125 36.5985 144.125 36.625V39.9183V40.2952C144.125 40.3349 144.118 40.3746 144.105 40.4143C144.092 40.4407 144.085 40.4672 144.085 40.4936C144.072 40.5333 144.039 40.5532 143.986 40.5532C143.973 40.5532 143.953 40.5598 143.927 40.573C143.9 40.5862 143.867 40.5994 143.828 40.6127C143.338 40.6127 142.875 40.6325 142.439 40.6722H141.05ZM155.257 40.8706C155.019 40.8706 154.867 40.6325 154.801 40.1564C154.761 39.958 154.742 39.7794 154.742 39.6207C154.742 39.4091 154.735 39.2768 154.722 39.2239C154.708 38.8404 154.675 38.232 154.622 37.3987L154.563 36.6448C154.484 35.4809 154.444 34.6212 154.444 34.0657V29.2448C154.444 29.139 154.563 29.0597 154.801 29.0068C154.933 28.9671 155.118 28.9472 155.357 28.9472C155.515 28.9472 155.687 28.9605 155.872 28.9869C156.058 29.0002 156.196 29.0068 156.289 29.0068C156.487 29.0332 156.798 29.0464 157.221 29.0464L157.301 28.9869H158.174C158.213 29.0266 158.26 29.0464 158.313 29.0464H158.392C158.405 29.0332 158.438 29.0266 158.491 29.0266C158.518 29.0134 158.557 29.0068 158.61 29.0068C158.623 28.9935 158.637 28.9869 158.65 28.9869C158.663 28.9869 158.67 28.9869 158.67 28.9869C158.709 28.9869 158.756 29.0002 158.809 29.0266C158.861 29.0398 158.901 29.0464 158.928 29.0464H160.396L160.455 32.4588C160.455 32.472 160.442 32.5183 160.416 32.5977C160.402 32.6638 160.389 32.7564 160.376 32.8754C160.336 33.3515 160.316 33.7285 160.316 34.0062V37.8749L160.257 38.6288C160.217 38.9594 160.204 39.2305 160.217 39.4422C160.217 39.7199 160.204 39.9448 160.177 40.1167C160.164 40.2754 160.125 40.4011 160.058 40.4936C159.979 40.5862 159.853 40.6325 159.681 40.6325L159.662 40.6127L159.602 40.5928C159.576 40.5928 159.562 40.5994 159.562 40.6127H159.463C159.384 40.6391 159.338 40.659 159.324 40.6722C159.258 40.6722 159.106 40.6523 158.868 40.6127L158.59 40.5928C158.524 40.5928 158.485 40.6193 158.471 40.6722H156.983H156.706L156.19 40.7714L155.714 40.8309L155.257 40.8706ZM163.414 40.5333C163.387 40.5333 163.368 40.5069 163.354 40.454C163.262 40.3349 163.196 40.1894 163.156 40.0175C163.116 39.9514 163.083 39.8654 163.057 39.7596C162.938 39.5215 162.852 39.1909 162.799 38.7676C162.746 38.1592 162.72 37.6765 162.72 37.3194C162.706 37.1607 162.7 36.9424 162.7 36.6647V36.1885C162.7 35.7918 162.693 35.4809 162.68 35.2561C162.667 35.018 162.66 34.5485 162.66 33.8475C162.66 31.9694 162.7 30.5212 162.779 29.5027C162.779 29.344 163.004 29.225 163.454 29.1456H164.049H164.545C165.299 29.1456 165.861 29.1589 166.231 29.1853C166.787 29.225 167.349 29.2448 167.917 29.2448C168.05 29.2448 168.149 29.2382 168.215 29.225H168.513L168.612 29.3044C169.048 29.2118 169.498 29.1523 169.961 29.1258C170.424 29.0993 170.986 29.0861 171.647 29.0861C171.674 29.0861 171.707 29.106 171.746 29.1456H172.381C172.487 29.1456 172.566 29.2052 172.619 29.3242C172.685 29.4432 172.738 29.6152 172.778 29.84C172.831 30.0119 172.871 30.2236 172.897 30.4749C172.95 30.8055 172.996 31.0237 173.036 31.1296C173.036 31.4999 172.97 31.685 172.837 31.685C172.824 31.685 172.804 31.6652 172.778 31.6255L172.699 31.6057C172.632 31.5925 172.56 31.5991 172.48 31.6255C172.401 31.6652 172.315 31.685 172.222 31.685C172.143 31.685 172.077 31.6652 172.024 31.6255C171.998 31.6123 171.938 31.6057 171.846 31.6057C171.726 31.6057 171.588 31.6255 171.429 31.6652C171.376 31.6784 171.27 31.6983 171.111 31.7247C170.966 31.7512 170.794 31.7644 170.596 31.7644C170.027 31.7644 169.617 31.7776 169.366 31.8041C169.22 31.8173 169.081 31.857 168.949 31.9231V31.8834C168.896 31.8834 168.85 31.9496 168.81 32.0818C168.718 32.3067 168.658 32.6175 168.632 33.0143C168.618 33.1333 168.612 33.2656 168.612 33.4111C168.612 33.5565 168.632 33.6557 168.671 33.7086C168.724 33.7615 168.804 33.788 168.909 33.788C168.989 33.788 169.055 33.7615 169.108 33.7086C169.134 33.7086 169.167 33.7153 169.207 33.7285C169.247 33.7417 169.28 33.7615 169.306 33.788H170.992C171.006 33.7615 171.025 33.7417 171.052 33.7285C171.078 33.7153 171.105 33.7086 171.131 33.7086C171.264 33.7086 171.363 33.7285 171.429 33.7682C171.508 33.8078 171.667 33.8475 171.905 33.8872C172.037 33.8872 172.13 33.9269 172.183 34.0062C172.249 34.0988 172.282 34.1848 172.282 34.2641L172.699 35.5735C172.738 35.7851 172.54 35.924 172.103 35.9901C171.852 36.0431 171.369 36.0695 170.655 36.0695H169.802H169.207C169.022 36.0695 168.883 36.0827 168.79 36.1092C168.698 36.1224 168.638 36.1687 168.612 36.2481C168.559 36.3142 168.532 36.42 168.532 36.5655V36.6448C168.532 36.711 168.539 36.7573 168.552 36.7837L168.532 37.2202C168.519 37.3128 168.513 37.4516 168.513 37.6368V37.8352V38.0137V38.1328C169.108 38.1328 169.716 38.1129 170.338 38.0733C170.946 38.0336 171.548 38.0137 172.143 38.0137C172.183 38.0137 172.216 38.0468 172.242 38.1129C172.269 38.1658 172.282 38.232 172.282 38.3113C172.308 38.3907 172.322 38.4767 172.322 38.5692C172.348 38.7676 172.388 38.9528 172.441 39.1247L172.58 39.7001V40.0969V40.1564V40.3151L172.421 40.454H172.282H172.222C172.077 40.454 171.984 40.4473 171.945 40.4341C171.905 40.4077 171.859 40.3944 171.806 40.3944C171.779 40.4077 171.74 40.4275 171.687 40.454C171.634 40.4804 171.588 40.5069 171.548 40.5333V40.4341L171.31 40.454H171.012C170.959 40.454 170.92 40.4407 170.893 40.4143L170.735 40.3944C170.245 40.3944 169.901 40.4407 169.703 40.5333H163.414ZM163.711 28.0942C163.645 28.0942 163.592 28.0677 163.553 28.0148C163.526 27.9487 163.513 27.8759 163.513 27.7966V27.6974C163.513 27.6445 163.52 27.6114 163.533 27.5982C163.652 27.413 163.778 27.2477 163.91 27.1022C164.227 26.679 164.432 26.3615 164.525 26.1499L164.981 25.5746C165.034 25.482 165.16 25.3365 165.358 25.1381C165.53 24.9794 165.662 24.8405 165.755 24.7215L165.814 24.5826L166.489 24.1858H167.898H168.136H168.294C168.334 24.2123 168.394 24.2255 168.473 24.2255H168.77L169.247 24.2652L169.564 24.4636L170.913 26.507L171.25 26.9633C171.409 27.2146 171.568 27.4262 171.726 27.5982L171.746 27.6974V27.7966C171.746 27.995 171.674 28.0942 171.528 28.0942H171.171H170.814H170.417H169.842H169.544C169.465 28.0942 169.392 28.0346 169.326 27.9156L168.85 27.499C168.4 27.1287 167.997 26.7649 167.64 26.4078C167.415 26.593 167.203 26.7848 167.005 26.9832C166.529 27.4064 166.264 27.6445 166.211 27.6974C165.973 27.9619 165.808 28.0942 165.715 28.0942H165.457H165.12L165.061 28.0346L165.001 28.0942H164.525H164.168H163.711ZM172.401 25.396H172.004C171.912 25.396 171.799 25.2968 171.667 25.0984C171.416 24.7281 171.164 24.2454 170.913 23.6502C170.86 23.5576 170.801 23.4518 170.735 23.3328C170.682 23.2137 170.622 23.0947 170.556 22.9757C170.41 22.7376 170.278 22.4731 170.159 22.1821L169.981 21.825C169.901 21.706 169.835 21.5869 169.782 21.4679C169.743 21.3885 169.723 21.3224 169.723 21.2695C169.723 21.1901 169.769 21.1306 169.862 21.0909C169.901 21.0513 169.974 21.0182 170.08 20.9917C170.199 20.9653 170.298 20.9388 170.377 20.9124H170.477C170.477 20.9256 170.496 20.9322 170.536 20.9322L170.675 20.8925L171.945 20.7934C172.196 20.8066 172.619 20.8132 173.214 20.8132L173.71 20.9719L173.849 21.0909C173.849 21.5009 173.836 21.9837 173.81 22.5392C173.783 22.936 173.77 23.2137 173.77 23.3724C173.77 23.5576 173.777 23.6965 173.79 23.7891C173.803 24.0007 173.81 24.3379 173.81 24.8009C173.81 24.986 173.783 25.1315 173.73 25.2373C173.691 25.3431 173.591 25.396 173.433 25.396H172.957L172.897 25.3365L172.738 25.396H172.401ZM179.202 40.9103C178.673 40.9367 178.223 40.9235 177.853 40.8706C177.549 40.8044 177.271 40.7119 177.02 40.5928C176.769 40.4738 176.537 40.2886 176.325 40.0373C175.902 39.5083 175.618 38.8139 175.472 37.9542C175.367 37.2532 175.327 36.4861 175.353 35.6529V34.78C175.353 34.6609 175.36 34.5683 175.373 34.5022V34.1054V33.7483V33.5499L175.433 33.4111C175.433 33.3978 175.433 33.378 175.433 33.3515C175.446 33.3251 175.453 33.2788 175.453 33.2127C175.492 32.7365 175.512 32.353 175.512 32.062L175.552 31.3279C175.565 30.9973 175.572 30.6137 175.572 30.1773C175.572 30.0053 175.565 29.8863 175.552 29.8202C175.525 29.6615 175.512 29.5358 175.512 29.4432C175.512 29.2448 175.717 29.1456 176.127 29.1456H176.405C176.564 29.1456 176.669 29.1324 176.722 29.106L179.143 29.1456C179.143 29.1456 179.149 29.1589 179.162 29.1853C179.189 29.1985 179.209 29.2052 179.222 29.2052L179.381 29.1456C180.068 29.1456 180.512 29.2118 180.71 29.344C180.842 29.4366 180.935 29.5755 180.988 29.7607C181.054 29.9458 181.087 30.1971 181.087 30.5145C181.087 30.7262 181.1 31.0171 181.127 31.3875C181.153 31.5726 181.166 31.8636 181.166 32.2604V32.4588C181.14 32.8423 181.113 33.4706 181.087 34.3435L181.067 35.2958V36.1489C181.041 36.3076 181.027 36.5192 181.027 36.7837V37.0813V37.3789C181.014 37.5641 181.041 37.822 181.107 38.1526C181.173 38.2584 181.232 38.3113 181.285 38.3113C181.365 38.3113 181.662 38.2121 182.178 38.0137L182.654 37.7757C182.786 37.7228 182.853 37.6699 182.853 37.617V31.0899C182.813 30.8121 182.793 30.5939 182.793 30.4352C182.78 30.3691 182.773 30.2699 182.773 30.1376V29.84V29.6416C182.773 29.4829 182.806 29.3705 182.872 29.3044C182.899 29.2647 182.965 29.2448 183.071 29.2448C183.097 29.2448 183.124 29.2581 183.15 29.2845C183.177 29.2977 183.19 29.3176 183.19 29.344V29.3837C183.322 29.3308 183.606 29.2845 184.043 29.2448C184.4 29.2052 184.797 29.1853 185.233 29.1853H185.729H186.047H186.424L188.507 29.2448C188.533 29.2448 188.553 29.2514 188.566 29.2647C188.593 29.2779 188.606 29.2911 188.606 29.3044C188.619 29.3044 188.626 29.311 188.626 29.3242C188.626 29.3374 188.626 29.344 188.626 29.344V29.4432C188.612 29.4432 188.606 29.4631 188.606 29.5027L188.705 29.4829C188.718 29.4565 188.738 29.4432 188.765 29.4432C188.804 29.4432 188.824 29.4763 188.824 29.5424C188.824 31.857 188.811 33.7814 188.784 35.3156C188.771 36.8366 188.718 38.3775 188.626 39.9381C188.626 40.0043 188.573 40.1035 188.467 40.2357C188.414 40.3019 188.368 40.3548 188.328 40.3944C188.315 40.4209 188.295 40.4407 188.269 40.454C188.242 40.4672 188.222 40.4804 188.209 40.4936C188.196 40.4804 188.15 40.4672 188.07 40.454C187.991 40.4275 187.925 40.4143 187.872 40.4143L187.812 40.454C187.786 40.4804 187.759 40.4936 187.733 40.4936C187.204 40.5862 186.371 40.6325 185.233 40.6325H184.36C184.03 40.6325 183.739 40.6061 183.487 40.5532C183.395 40.487 183.296 40.3217 183.19 40.0572C183.177 39.9646 183.15 39.8852 183.11 39.8191C183.084 39.753 183.051 39.7199 183.011 39.7199C182.905 39.7199 182.74 39.7927 182.515 39.9381C182.489 39.9646 182.449 39.9977 182.396 40.0373C182.357 40.0638 182.317 40.0969 182.277 40.1365C182.171 40.2159 182.099 40.282 182.059 40.3349C181.702 40.5333 181.279 40.6788 180.789 40.7714C180.459 40.8507 180.154 40.8904 179.877 40.8904C179.572 40.8904 179.348 40.897 179.202 40.9103Z" fill="#DF078A"/>
<path d="M205.027 42.3784C205.027 42.3784 205.014 42.3784 204.988 42.3784C204.974 42.3784 204.961 42.385 204.948 42.3982L204.888 42.418C204.849 42.418 204.829 42.4048 204.829 42.3784C204.776 42.3519 204.743 42.3122 204.73 42.2593C204.267 42.18 203.969 42.1138 203.837 42.0609L203.143 41.8625H203.043C202.977 41.8625 202.924 41.8493 202.885 41.8229C202.766 41.8229 202.666 41.8096 202.587 41.7832C202.481 41.77 202.309 41.7237 202.071 41.6443C201.833 41.565 201.661 41.5054 201.555 41.4658C201.344 41.3996 201.04 41.2872 200.643 41.1285C200.458 41.0491 200.319 40.9962 200.226 40.9698L199.77 40.692C199.664 40.6127 199.611 40.5333 199.611 40.454C199.611 40.2027 199.671 39.9381 199.79 39.6604C199.829 39.5678 199.882 39.4554 199.948 39.3231C200.028 39.1909 200.101 39.0388 200.167 38.8668C200.193 38.7875 200.266 38.6684 200.385 38.5097C200.702 37.9807 200.874 37.6897 200.901 37.6368C200.954 37.4913 200.98 37.359 200.98 37.24C200.98 37.0416 200.874 36.8366 200.663 36.625C200.464 36.4266 200.365 36.2348 200.365 36.0497C200.299 36.0497 200.266 36.0563 200.266 36.0695H200.226H200.206C200.18 36.0431 200.167 36.0166 200.167 35.9901C199.743 35.4611 199.314 34.8196 198.877 34.0657C198.322 33.1928 197.872 32.3993 197.528 31.685C197.422 31.5263 197.297 31.242 197.151 30.832C196.979 30.4749 196.834 30.1111 196.715 29.7408C196.569 29.3308 196.496 29.0663 196.496 28.9472C196.496 28.815 196.642 28.643 196.933 28.4314C197.052 28.3521 197.191 28.2727 197.349 28.1934C197.508 28.114 197.627 28.0545 197.707 28.0148C197.773 28.0016 198.05 27.9288 198.54 27.7966L198.818 27.6974C198.871 27.6577 198.93 27.6379 198.996 27.6379C199.076 27.6379 199.201 27.6114 199.373 27.5585C199.757 27.4791 199.981 27.4262 200.048 27.3998L200.762 27.2411C201.159 27.1088 201.39 27.0361 201.456 27.0228L201.496 27.003H201.555H201.595C201.873 27.003 202.058 27.0691 202.151 27.2014C202.23 27.2808 202.362 27.4659 202.547 27.7569C202.574 27.8363 202.62 27.9288 202.686 28.0346C202.766 28.1405 202.818 28.2066 202.845 28.233L203.004 28.4513L203.143 28.61C203.195 28.6761 203.248 28.7555 203.301 28.848C203.354 28.9406 203.414 29.0398 203.48 29.1456C203.824 29.754 204.088 30.1839 204.273 30.4352C204.392 30.6071 204.492 30.6931 204.571 30.6931C204.611 30.6931 204.677 30.6203 204.769 30.4749C204.888 30.2897 205.107 29.8665 205.424 29.2052C205.596 28.7819 205.801 28.2992 206.039 27.7569C206.158 27.5188 206.224 27.3733 206.237 27.3204C206.29 27.0824 206.35 26.9303 206.416 26.8641C206.482 26.7583 206.601 26.7054 206.773 26.7054C207.196 26.7054 207.752 26.7914 208.44 26.9633C209.114 27.1617 209.762 27.4196 210.384 27.7371C211.019 28.0809 211.449 28.3984 211.673 28.6893C211.673 29.0464 211.587 29.3771 211.415 29.6813L209.59 33.7086L207.805 37.7558L207.725 37.7757C207.712 37.7757 207.692 37.7889 207.666 37.8153C206.793 39.5215 205.993 41.0557 205.265 42.418C205.239 42.4709 205.16 42.4974 205.027 42.4974V42.3784ZM219.199 41.1086C219.093 41.1086 218.948 41.0954 218.763 41.069C218.67 41.0425 218.525 41.0293 218.326 41.0293C217.824 41.0293 217.202 40.9169 216.461 40.692H216.322C216.23 40.692 216.131 40.6656 216.025 40.6127C215.998 40.5862 215.965 40.5664 215.926 40.5532C215.886 40.5267 215.84 40.4936 215.787 40.454L215.37 40.2159C214.973 39.991 214.623 39.6802 214.319 39.2834C214.014 38.8734 213.77 38.4238 213.585 37.9344C213.227 37.035 213.049 36.1158 213.049 35.1767C213.049 34.1319 213.261 33.1267 213.684 32.1612C214.133 31.1428 214.735 30.336 215.489 29.7408C216.322 29.0795 217.248 28.7489 218.267 28.7489C218.584 28.7489 218.829 28.7621 219.001 28.7885C219.001 28.7621 219.021 28.7489 219.06 28.7489H219.12C220.046 28.7489 220.872 28.7819 221.6 28.848C222.221 28.9406 222.797 29.1324 223.326 29.4234C224.384 30.1244 225.144 30.8915 225.607 31.7247C226.096 32.6506 226.341 33.7417 226.341 34.9982C226.341 36.2547 226.044 37.4318 225.448 38.5296L225.25 38.847C225.197 38.9263 225.164 38.966 225.151 38.966L225.091 39.0652L224.952 39.1446C224.384 39.991 223.524 40.5664 222.373 40.8706C221.606 41.0293 220.548 41.1086 219.199 41.1086ZM219.536 39.6207C219.655 39.6207 219.748 39.548 219.814 39.4025C219.973 39.1644 220.105 38.7015 220.211 38.0137C220.224 37.8947 220.257 37.6302 220.31 37.2202C220.363 36.8102 220.396 36.4266 220.409 36.0695C220.462 35.1701 220.489 34.6146 220.489 34.403V33.9467V33.788C220.489 33.3119 220.469 32.9019 220.429 32.558C220.389 32.0157 220.31 31.5859 220.191 31.2684C220.072 31.1097 219.979 31.0304 219.913 31.0304C219.781 31.0304 219.655 31.1296 219.536 31.3279C219.417 31.5263 219.325 31.8901 219.259 32.4191L218.842 35.5934V35.9901V36.2481C218.882 36.8036 218.901 37.1673 218.901 37.3392L218.941 37.8153L219.001 38.4502C219.001 38.556 219.014 38.6486 219.04 38.728L219.259 39.462C219.272 39.5149 219.305 39.5546 219.358 39.581C219.424 39.6075 219.483 39.6207 219.536 39.6207ZM233.223 41.069C232.377 41.069 231.59 40.864 230.862 40.454C230.016 40.0307 229.348 39.3959 228.858 38.5494C228.303 37.5707 228.025 36.3803 228.025 34.9784C228.025 34.0128 228.197 33.1399 228.541 32.3596C228.898 31.5792 229.394 30.9179 230.029 30.3757C230.651 29.8466 231.385 29.4432 232.231 29.1655C233.078 28.8877 233.997 28.7489 234.989 28.7489C236.404 28.7489 237.918 29.1258 239.532 29.8797L238.838 32.796C238.599 32.7431 238.381 32.6836 238.183 32.6175C237.667 32.472 237.197 32.3662 236.774 32.3001C236.483 32.2472 236.258 32.2207 236.1 32.2207C235.412 32.2207 234.876 32.4125 234.493 32.796C234.043 33.2722 233.818 34.0327 233.818 35.0775C233.818 35.9637 233.957 36.6448 234.235 37.121C234.499 37.4913 234.85 37.6765 235.286 37.6765C235.643 37.6765 235.987 37.6037 236.318 37.4582C236.305 37.326 236.291 37.1739 236.278 37.0019C236.265 36.8168 236.258 36.6052 236.258 36.3671C236.206 35.891 236.153 35.5537 236.1 35.3553V34.5816C236.1 34.489 236.139 34.4427 236.219 34.4427H236.318C236.358 34.4427 236.397 34.4361 236.437 34.4229C236.477 34.4096 236.516 34.403 236.556 34.403C236.688 34.3766 236.768 34.3633 236.794 34.3633C236.887 34.3633 237.012 34.3766 237.171 34.403C237.224 34.403 237.283 34.4096 237.35 34.4229C237.416 34.4361 237.482 34.4427 237.548 34.4427C237.601 34.3898 237.766 34.3633 238.044 34.3633C238.256 34.3633 238.421 34.3567 238.54 34.3435C238.619 34.317 238.718 34.3038 238.838 34.3038L239.076 34.2443C239.195 34.2575 239.367 34.2641 239.591 34.2641C239.684 34.2774 239.81 34.284 239.968 34.284C240.008 34.284 240.041 34.2906 240.068 34.3038C240.094 34.3038 240.114 34.3038 240.127 34.3038H240.564L240.643 34.3435V34.899C240.656 34.9651 240.663 35.0643 240.663 35.1966V35.4743V35.9901V37.736V37.8153C240.649 37.855 240.643 37.9079 240.643 37.9741C240.63 38.027 240.623 38.0865 240.623 38.1526V38.2518C240.623 38.9528 240.61 39.4488 240.583 39.7397C240.557 40.1762 240.511 40.4738 240.444 40.6325C240.167 40.6325 239.949 40.6457 239.79 40.6722H239.393H239.353H239.175L239.155 40.6325L239.076 40.6722H237.35H237.27H237.092H236.893C236.867 40.6854 236.821 40.692 236.754 40.692C236.662 40.692 236.596 40.5598 236.556 40.2952C236.49 40.0043 236.457 39.6604 236.457 39.2636C236.325 39.8456 235.961 40.2952 235.366 40.6127C234.784 40.9169 234.07 41.069 233.223 41.069ZM242.916 40.6325C242.665 40.6325 242.566 40.4077 242.619 39.958C242.619 39.7993 242.652 39.6207 242.718 39.4223C242.718 39.3297 242.724 39.257 242.738 39.2041C242.751 39.138 242.757 39.0851 242.757 39.0454C243.062 37.6037 243.399 36.1819 243.769 34.78L245.118 29.5027C245.118 29.4763 245.138 29.4432 245.178 29.4035C245.218 29.3639 245.257 29.3308 245.297 29.3044H245.436C245.594 29.3044 245.72 29.2845 245.813 29.2448C245.892 29.2316 246.031 29.225 246.229 29.225C246.547 29.225 246.785 29.2316 246.944 29.2448C247.182 29.2845 247.426 29.3044 247.678 29.3044L248.709 29.2845C248.815 29.2581 248.941 29.2448 249.086 29.2448L249.959 29.2052H250.614C250.865 29.2052 251.11 29.2118 251.348 29.225H251.903C252.036 29.2382 252.227 29.2448 252.479 29.2448H253.233C253.272 29.2448 253.312 29.2514 253.352 29.2647C253.391 29.2779 253.424 29.2911 253.451 29.3044C253.504 29.3308 253.57 29.344 253.649 29.344H253.828C253.92 29.4102 253.967 29.4763 253.967 29.5424L255.375 34.78C255.812 36.4597 256.155 37.8815 256.407 39.0454C256.407 39.1115 256.427 39.2372 256.466 39.4223C256.519 39.6868 256.546 39.8985 256.546 40.0572C256.546 40.1498 256.532 40.2754 256.506 40.4341C256.44 40.5664 256.347 40.6325 256.228 40.6325H256.01C255.838 40.6325 255.706 40.6259 255.613 40.6127H255.177H254.76H254.423C254.33 40.6127 254.277 40.6061 254.264 40.5928H253.173L253.153 40.5532C253.127 40.5267 253.087 40.5135 253.034 40.5135L252.975 40.5532C252.975 40.5796 252.961 40.5928 252.935 40.5928H252.875H252.737C252.67 40.5664 252.551 40.5532 252.379 40.5532C252.062 40.5267 251.797 40.5135 251.586 40.5135C251.44 40.2093 251.268 39.5414 251.07 38.5097C250.792 38.5494 250.475 38.5692 250.118 38.5692H249.602H249.106C249.053 38.7676 249.02 38.933 249.007 39.0652C248.994 39.1313 248.941 39.3562 248.848 39.7397C248.755 40.1233 248.67 40.3812 248.59 40.5135L248.471 40.5532C248.431 40.5664 248.398 40.5796 248.372 40.5928C248.345 40.5928 248.332 40.5928 248.332 40.5928H248.293C248.213 40.5928 248.16 40.5796 248.134 40.5532C248.081 40.5267 248.048 40.5135 248.035 40.5135L247.281 40.5532H246.725C246.659 40.5664 246.606 40.5796 246.567 40.5928C246.527 40.5928 246.5 40.5928 246.487 40.5928H244.9H244.741C244.622 40.6061 244.378 40.6127 244.007 40.6127H243.531C243.452 40.6259 243.326 40.6325 243.154 40.6325H242.916ZM250.892 36.3869C250.812 35.9372 250.766 35.6727 250.753 35.5934L250.594 34.6411C250.567 34.4559 250.541 34.2906 250.515 34.1451C250.488 33.9864 250.468 33.8409 250.455 33.7086C250.415 33.5499 250.382 33.4044 250.356 33.2722C250.343 33.1267 250.323 32.9944 250.296 32.8754C250.283 32.796 250.27 32.6968 250.257 32.5778C250.243 32.4456 250.224 32.353 250.197 32.3001L250.157 32.062C250.157 32.0091 250.144 31.9628 250.118 31.9231L250.098 31.8041C250.071 31.8834 250.058 31.9231 250.058 31.9231V32.0025V32.062C250.058 32.0752 250.052 32.1017 250.038 32.1414C250.025 32.1678 250.012 32.2207 249.999 32.3001C249.986 32.3662 249.972 32.4522 249.959 32.558C249.946 32.6506 249.926 32.7564 249.9 32.8754L249.761 33.6888L249.602 34.6014L249.542 35.0379C249.516 35.1437 249.49 35.3156 249.463 35.5537C249.344 36.1489 249.291 36.42 249.304 36.3671H250.177C250.191 36.3539 250.21 36.3406 250.237 36.3274C250.263 36.301 250.283 36.2877 250.296 36.2877H250.356C250.422 36.2877 250.475 36.2943 250.515 36.3076C250.567 36.3208 250.614 36.334 250.653 36.3473C250.733 36.3737 250.812 36.3869 250.892 36.3869Z" fill="black"/>
</svg>
